<svg width="1121" height="814" viewBox="0 0 1121 814" fill="none" xmlns="http://www.w3.org/2000/svg">
<g clip-path="url(#clip0)">
<path d="M1032.19 197.872C905.025 24.7947 636.398 -45.4129 372.212 30.2023C232.545 70.1777 97.88 150.275 31.1433 305.368C-88.1557 582.614 162.327 671.16 326.116 699.38C405.316 713.026 479.908 735.948 548.071 767.156C670.703 823.304 887.769 873.056 1051.46 639.177C1170.09 469.662 1116.89 313.158 1032.19 197.872Z" fill="white"/>
<path d="M948.442 144.386H281.457V580.898H948.442V144.386Z" fill="#DDDDDD"/>
<path d="M581.226 203.003H340.436V455.842H581.226V203.003Z" fill="white"/>
<path d="M912.076 207.906H671.285V514.994H912.076V207.906Z" fill="white"/>
<path d="M908.866 612.635C932.688 612.635 952 609.816 952 606.338C952 602.861 932.688 600.041 908.866 600.041C885.044 600.041 865.733 602.861 865.733 606.338C865.733 609.816 885.044 612.635 908.866 612.635Z" fill="#E6E6E6"/>
<path d="M477.622 612.776C501.444 612.776 520.756 609.957 520.756 606.479C520.756 603.002 501.444 600.183 477.622 600.183C453.8 600.183 434.488 603.002 434.488 606.479C434.488 609.957 453.8 612.776 477.622 612.776Z" fill="#E6E6E6"/>
<path d="M206.994 605.026C261.667 605.026 305.988 602.858 305.988 600.183C305.988 597.507 261.667 595.339 206.994 595.339C152.321 595.339 108 597.507 108 600.183C108 602.858 152.321 605.026 206.994 605.026Z" fill="#E6E6E6"/>
<path d="M948.157 144H281.172V172.956H948.157V144Z" fill="#009600" fill-opacity="0.85"/>
<path d="M302.229 164.17C305.129 164.17 307.481 161.768 307.481 158.804C307.481 155.84 305.129 153.437 302.229 153.437C299.328 153.437 296.977 155.84 296.977 158.804C296.977 161.768 299.328 164.17 302.229 164.17Z" fill="white"/>
<path d="M322.164 164.17C325.064 164.17 327.415 161.768 327.415 158.804C327.415 155.84 325.064 153.437 322.164 153.437C319.263 153.437 316.912 155.84 316.912 158.804C316.912 161.768 319.263 164.17 322.164 164.17Z" fill="white"/>
<path d="M342.098 164.17C344.999 164.17 347.35 161.768 347.35 158.804C347.35 155.84 344.999 153.437 342.098 153.437C339.198 153.437 336.846 155.84 336.846 158.804C336.846 161.768 339.198 164.17 342.098 164.17Z" fill="white"/>
<path d="M858.988 290.277H857.529V249.445C857.529 246.341 856.931 243.268 855.769 240.401C854.607 237.533 852.903 234.928 850.756 232.734C848.608 230.539 846.059 228.798 843.253 227.611C840.447 226.423 837.439 225.812 834.402 225.812H749.745C746.708 225.812 743.701 226.423 740.895 227.611C738.089 228.798 735.539 230.539 733.392 232.734C731.244 234.928 729.541 237.533 728.379 240.401C727.216 243.268 726.618 246.341 726.618 249.445V473.455C726.618 476.559 727.216 479.632 728.379 482.499C729.541 485.366 731.244 487.972 733.392 490.166C735.539 492.361 738.089 494.101 740.895 495.289C743.701 496.477 746.708 497.088 749.745 497.088H834.402C837.439 497.088 840.447 496.477 843.253 495.289C846.059 494.101 848.608 492.361 850.756 490.166C852.903 487.972 854.607 485.366 855.769 482.499C856.931 479.632 857.529 476.559 857.529 473.455V319.342H858.988V290.277Z" fill="#3F3D56"/>
<path d="M834.387 231.96H823.337C823.845 233.233 824.039 234.615 823.902 235.983C823.765 237.35 823.3 238.663 822.55 239.804C821.799 240.945 820.785 241.88 819.598 242.527C818.41 243.173 817.085 243.512 815.74 243.512H767.241C765.895 243.512 764.57 243.173 763.383 242.527C762.195 241.88 761.182 240.945 760.431 239.804C759.681 238.663 759.216 237.35 759.079 235.983C758.942 234.615 759.136 233.233 759.644 231.96H749.322C747.054 231.96 744.809 232.417 742.713 233.304C740.618 234.191 738.714 235.491 737.11 237.129C735.506 238.768 734.234 240.714 733.366 242.855C732.498 244.996 732.052 247.291 732.052 249.609V473.291C732.052 475.609 732.498 477.903 733.366 480.045C734.234 482.186 735.506 484.132 737.11 485.77C738.714 487.409 740.618 488.709 742.713 489.596C744.809 490.483 747.054 490.94 749.322 490.94H834.387C836.656 490.94 838.901 490.483 840.997 489.596C843.092 488.709 844.996 487.409 846.6 485.77C848.204 484.132 849.476 482.186 850.344 480.045C851.212 477.903 851.658 475.609 851.658 473.291V249.609C851.658 244.928 849.839 240.439 846.6 237.129C843.361 233.82 838.968 231.96 834.387 231.96Z" fill="white"/>
<path d="M544.678 362.716H377.316V370.517H544.678V362.716Z" fill="#DDDDDD"/>
<path d="M544.678 387.903H377.316V395.704H544.678V387.903Z" fill="#009600" fill-opacity="0.85"/>
<path d="M544.678 413.09H377.316V420.891H544.678V413.09Z" fill="#DDDDDD"/>
<path d="M841.655 379.736H743.951V387.537H841.655V379.736Z" fill="#009600" fill-opacity="0.85"/>
<path d="M841.655 403.955H743.951V411.756H841.655V403.955Z" fill="#DDDDDD"/>
<path d="M841.655 428.173H743.951V435.974H841.655V428.173Z" fill="#009600" fill-opacity="0.85"/>
<path d="M851.87 549.308V532.668H835.586V549.308H851.87Z" fill="#009600" fill-opacity="0.98"/>
<path d="M825.635 549.308V532.668H809.351V549.308H825.635Z" fill="#009600" fill-opacity="0.85"/>
<path d="M799.4 549.308V532.668H783.116V549.308H799.4Z" fill="#009600" fill-opacity="0.98"/>
<path d="M773.164 549.308V532.668H756.88V549.308H773.164Z" fill="#009600" fill-opacity="0.98"/>
<path d="M746.929 549.308V532.668H730.645V549.308H746.929Z" fill="#009600" fill-opacity="0.98"/>
<path d="M818.995 278.644H764.715V334.112H818.995V278.644Z" fill="#DDDDDD"/>
<path d="M439.423 410.975L438.721 412.411L436.613 401.642C436.613 401.642 433.803 390.155 439.423 390.155C445.044 390.155 443.639 401.642 443.639 401.642V409.54L439.423 410.975Z" fill="#A0616A"/>
<path d="M531.607 409.505L532.31 410.941L534.418 400.172C534.418 400.172 537.228 388.684 531.607 388.684C525.987 388.684 527.392 400.172 527.392 400.172V408.069L531.607 409.505Z" fill="#A0616A"/>
<path d="M470.337 491.716L461.907 544.845L466.121 596.538L475.958 592.231L474.553 553.46L484.389 522.588L486.497 559.204L482.282 597.256L494.928 598.692L504.062 520.434L503.36 493.87L470.337 491.716Z" fill="#2F2E41"/>
<path d="M470.337 590.077L465.419 597.974V615.621C465.419 616.129 465.596 616.621 465.919 617.008C466.241 617.395 466.688 617.652 467.179 617.733C469.59 618.137 473.787 618.425 475.256 615.923C477.363 612.334 475.958 604.436 475.958 604.436C475.958 604.436 478.769 598.692 477.363 594.385C475.958 590.077 474.553 589.359 474.553 589.359L470.337 590.077Z" fill="#2F2E41"/>
<path d="M491.415 597.256L492.82 599.41C492.82 599.41 494.928 601.564 493.523 603C492.492 604.116 491.552 605.317 490.713 606.59C490.713 606.59 482.984 608.744 482.984 605.872V596.538L491.415 597.256Z" fill="#2F2E41"/>
<path d="M488.883 433.282C494.027 433.282 498.196 429.021 498.196 423.765C498.196 418.509 494.027 414.248 488.883 414.248C483.739 414.248 479.57 418.509 479.57 423.765C479.57 429.021 483.739 433.282 488.883 433.282Z" fill="#A0616A"/>
<path d="M482.633 426.741L481.93 440.382L494.576 441.1L493.874 427.459L482.633 426.741Z" fill="#A0616A"/>
<path d="M496.333 441.459L494.339 436.48C494.339 436.48 485.092 432.843 482.281 436.433L480.876 440.741L469.635 437.869L463.312 452.228L468.932 493.152C468.932 493.152 483.687 512.537 503.359 493.87L508.98 455.1L504.764 440.023L496.333 441.459Z" fill="#979797"/>
<path d="M503.36 442.895L504.765 440.023L518.817 431.407L527.392 405.467L534.028 408.374L526.545 439.305L506.169 458.689L503.36 442.895Z" fill="#979797"/>
<path d="M471.04 439.305L469.635 437.869L454.88 428.536L444.341 406.997L435.911 409.868L445.044 436.433L467.527 455.1L471.04 439.305Z" fill="#979797"/>
<path d="M495.795 409.191L497.318 408.413L495.034 407.634V406.856C495.034 406.856 483.613 402.188 482.091 409.969C480.125 412.667 479.064 415.941 479.064 419.305C479.064 422.669 480.125 425.943 482.091 428.641V430.975L494.273 432.531L495.795 427.863C495.795 427.863 503.409 413.859 495.795 409.191Z" fill="#2F2E41"/>
<path d="M217.104 492.559L214.397 493.942C214.397 493.942 203.57 499.013 206.728 501.779C209.886 504.546 218.458 499.013 218.458 499.013L220.262 496.708L217.104 492.559Z" fill="#FFB8B8"/>
<path d="M296.303 491.87L287.936 549.265L275.303 589.373L268.536 586.146L274.852 531.285L256.806 515.61L258.159 492.559L296.303 491.87Z" fill="#2F2E41"/>
<path d="M267.633 587.529C267.633 587.529 275.303 583.38 275.754 589.374L274.852 595.367C274.852 595.367 277.559 605.97 268.536 603.665C259.513 601.36 265.829 594.445 265.829 594.445L267.633 587.529Z" fill="#2F2E41"/>
<path d="M262.671 510.539L256.806 515.61C256.806 515.61 256.806 546.96 260.866 551.57C264.927 556.18 290.642 579.692 291.545 580.614C292.447 581.536 296.507 571.394 296.507 571.394L272.145 542.349L273.95 524.369L262.671 510.539Z" fill="#2F2E41"/>
<path d="M293.8 570.011C293.8 570.011 301.019 568.628 301.019 573.699C301.109 577.708 301.41 581.709 301.921 585.685C301.921 585.685 303.726 601.821 297.861 599.516C291.996 597.211 289.74 581.075 289.74 581.075C290.286 579.734 291.233 578.604 292.447 577.848C294.251 576.926 293.8 570.011 293.8 570.011Z" fill="#2F2E41"/>
<path d="M271.243 423.405L272.596 440.464L268.987 446.917L259.062 437.236L258.159 424.328L271.243 423.405Z" fill="#FFB8B8"/>
<path d="M263.122 428.938C269.102 428.938 273.95 423.984 273.95 417.873C273.95 411.762 269.102 406.809 263.122 406.809C257.142 406.809 252.294 411.762 252.294 417.873C252.294 423.984 257.142 428.938 263.122 428.938Z" fill="#FFB8B8"/>
<path d="M267.634 440.003L272.145 426.633L280.266 435.854L295.154 494.403L283.875 501.318L278.913 493.942L278.01 503.623L255.903 499.013L254.099 437.236L258.608 430.746L267.634 440.003Z" fill="#D0CDE1"/>
<path d="M261.317 505.468L258.611 430.782L252.745 435.392L241.917 442.768L249.136 469.047L251.392 496.708L261.317 505.468Z" fill="#2F2E41"/>
<path d="M245.076 443.229L241.917 442.768L232.894 469.968L214.848 493.02L221.616 500.396L242.369 479.65L250.039 462.592L245.076 443.229Z" fill="#2F2E41"/>
<path d="M294.345 492.981L293.73 496.009C293.73 496.009 290.914 507.835 294.995 507.017C299.077 506.199 300.141 495.896 300.141 495.896L299.489 493.02L294.345 492.981Z" fill="#FFB8B8"/>
<path d="M271.44 425.884L293.8 434.931L291.094 462.592L296.507 493.02L291.094 499.013L271.076 429.803L271.44 425.884Z" fill="#2F2E41"/>
<path d="M263.689 399.29L266.867 397.666V399.29L268.986 398.208V400.914C268.986 400.914 276.932 406.868 275.342 413.905C273.753 420.942 273.753 421.483 273.753 421.483C273.753 421.483 271.744 408.101 263.799 410.266C255.853 412.432 255.213 412.823 253.095 418.777L252.52 421.331C252.52 421.331 243.56 400.373 263.689 399.29Z" fill="#2F2E41"/>
<path d="M290.642 434.931H294.251L300.117 467.203V495.325L292.899 493.942L287.033 451.528L290.642 434.931Z" fill="#2F2E41"/>
<path d="M244.374 503.178H111.351V597.64H244.374V503.178Z" fill="#009600" fill-opacity="0.85"/>
<path d="M177.863 521.61C172.289 521.61 166.84 523.299 162.205 526.463C157.571 529.628 153.958 534.126 151.825 539.388C149.692 544.65 149.134 550.441 150.221 556.028C151.309 561.614 153.993 566.746 157.935 570.773C161.876 574.801 166.898 577.544 172.365 578.655C177.832 579.766 183.498 579.196 188.648 577.016C193.798 574.836 198.199 571.145 201.296 566.409C204.393 561.673 206.046 556.105 206.046 550.409C206.024 542.778 203.048 535.466 197.767 530.07C192.486 524.673 185.331 521.632 177.863 521.61ZM177.863 530.25C179.535 530.25 181.17 530.756 182.56 531.706C183.951 532.655 185.034 534.004 185.674 535.583C186.314 537.162 186.481 538.899 186.155 540.575C185.829 542.251 185.024 543.79 183.841 544.999C182.659 546.207 181.152 547.03 179.512 547.363C177.872 547.697 176.172 547.525 174.627 546.871C173.082 546.218 171.762 545.11 170.833 543.689C169.904 542.269 169.408 540.598 169.408 538.889C169.415 536.6 170.309 534.407 171.893 532.789C173.477 531.17 175.623 530.257 177.863 530.25ZM177.863 571.842C174.523 571.827 171.237 570.979 168.29 569.372C165.344 567.765 162.825 565.448 160.953 562.621C161.089 556.861 172.226 553.691 177.863 553.691C183.499 553.691 194.637 556.861 194.773 562.621C192.898 565.446 190.379 567.761 187.433 569.368C184.487 570.975 181.202 571.824 177.863 571.842Z" fill="white"/>
<path d="M544.254 232.065H377.407V329.907H544.254V232.065Z" fill="#009600" fill-opacity="0.85"/>
<path d="M874.17 426.127L874.943 421.032C874.943 421.032 879.449 410.564 875.887 410C872.326 409.436 869.355 419.401 869.355 419.401L870.658 430.043L874.17 426.127Z" fill="#FFB8B8"/>
<path d="M910.637 455.012L878.803 448.478L875.104 424.784L865.733 424.045L866.191 454.679L893.85 469.498L910.637 455.012Z" fill="#979797"/>
<path opacity="0.2" d="M910.637 455.012L878.803 448.478L875.104 424.784L865.733 424.045L866.191 454.679L893.85 469.498L910.637 455.012Z" fill="black"/>
<path d="M824.032 419.86H921.736V412.059H824.032V419.86Z" fill="#009600" fill-opacity="0.85"/>
<path d="M867.95 424.38L867.957 419.224C867.957 419.224 870.854 408.178 867.249 408.174C863.645 408.169 862.191 418.48 862.191 418.48L865.062 428.796L867.95 424.38Z" fill="#FFB8B8"/>
<path d="M909.389 439.148L913.757 438.06C915.424 438.062 917.07 437.686 918.577 436.958C920.084 436.23 921.413 435.169 922.47 433.851C923.526 432.534 924.282 430.992 924.684 429.34C925.086 427.687 925.123 425.963 924.793 424.293C924.795 422.321 924.418 420.368 923.681 418.544C922.945 416.721 921.864 415.064 920.501 413.668C919.138 412.271 917.519 411.163 915.737 410.406C913.955 409.649 912.044 409.258 910.114 409.255C908.184 409.253 906.272 409.639 904.488 410.391C902.704 411.144 901.082 412.248 899.715 413.641C898.349 415.034 897.264 416.688 896.523 418.509C895.782 420.331 895.4 422.283 895.397 424.256C894.832 426.265 894.794 428.39 895.285 430.419C895.777 432.449 896.781 434.31 898.198 435.818C899.614 437.326 901.394 438.427 903.358 439.012C905.322 439.596 907.402 439.643 909.389 439.148Z" fill="#2F2E41"/>
<path d="M883.699 513.53L887.255 553.312L893.694 592.361L904.507 592.374L903.112 554.069L897.402 507.655L883.699 513.53Z" fill="#2F2E41"/>
<path d="M895.139 590.153L887.925 594.563C887.925 594.563 876.39 596.022 878.548 599.707C880.706 603.393 905.938 601.216 905.94 599.743C905.941 598.269 905.23 590.166 903.789 590.164L895.139 590.153Z" fill="#2F2E41"/>
<path d="M915.616 510.094C915.616 510.094 915.414 515.781 910.357 524.614L911.044 551.869L936.953 585.787L927.572 593.877L895.9 557.006L888.025 512.799L898.13 502.5L915.616 510.094Z" fill="#2F2E41"/>
<path d="M934.79 585.784C934.79 585.784 943.439 587.268 941.992 590.95C940.546 594.631 936.921 611.568 927.553 609.346C927.553 609.346 923.228 609.341 924.673 606.396C925.542 604.625 926.507 602.905 927.563 601.244L927.575 591.668L934.79 585.784Z" fill="#2F2E41"/>
<path d="M904.708 439.896C910.68 439.896 915.521 434.949 915.521 428.847C915.521 422.745 910.68 417.798 904.708 417.798C898.736 417.798 893.895 422.745 893.895 428.847C893.895 434.949 898.736 439.896 904.708 439.896Z" fill="#FFB8B8"/>
<path d="M909.744 436.22L909.729 448.742L898.196 448.727L899.653 436.207L909.744 436.22Z" fill="#FFB8B8"/>
<path d="M895.318 444.304L898.813 443.427L909.735 444.322C909.735 444.322 915.494 450.223 914.772 451.695C914.049 453.167 910.4 489.257 910.4 489.257L916.856 515.046L893.788 516.49L882.256 515.002L884.476 468.598C884.476 468.598 879.445 456.069 885.937 452.395C889.604 450.429 892.806 447.667 895.318 444.304Z" fill="#979797"/>
<path d="M908.289 447.267L875.854 445.752L868.673 422.908L859.302 423.632L864.31 453.84L893.852 464.191L908.289 447.267Z" fill="#979797"/>
<path d="M925.58 420.707C929.433 420.707 932.556 417.515 932.556 413.578C932.556 409.641 929.433 406.449 925.58 406.449C921.727 406.449 918.604 409.641 918.604 413.578C918.604 417.515 921.727 420.707 925.58 420.707Z" fill="#2F2E41"/>
<path d="M919.143 409.746C919.144 408.691 919.374 407.65 919.816 406.697C920.259 405.745 920.902 404.904 921.701 404.236C922.5 403.569 923.433 403.09 924.435 402.836C925.436 402.582 926.481 402.558 927.492 402.766C926.6 402.335 925.628 402.103 924.641 402.084C923.654 402.066 922.674 402.262 921.767 402.659C920.859 403.057 920.045 403.646 919.377 404.389C918.709 405.133 918.204 406.012 917.894 406.97C917.583 407.928 917.476 408.942 917.578 409.945C917.68 410.948 917.989 411.918 918.485 412.79C918.982 413.662 919.654 414.417 920.457 415.004C921.259 415.591 922.175 415.997 923.143 416.195C921.946 415.619 920.934 414.706 920.226 413.564C919.518 412.422 919.142 411.098 919.143 409.746Z" fill="#2F2E41"/>
<path d="M913.159 413.789L903.754 412.019L896.521 416.651C894.743 417.79 893.322 419.426 892.426 421.366C891.53 423.305 891.197 425.466 891.467 427.593L898.711 425.717L900.333 421.56L902.265 424.796L910.102 438.798L918.037 434.389L923.093 426.292L913.159 413.789Z" fill="#2F2E41"/>
<path d="M377.879 231.225L376.936 232.905L543.782 330.747L544.726 329.067L377.879 231.225Z" fill="white"/>
<path d="M543.786 231.231L376.932 329.06L377.875 330.74L544.729 232.911L543.786 231.231Z" fill="white"/>
<path d="M765.807 277.879L764.466 279.249L818.502 334.466L819.842 333.097L765.807 277.879Z" fill="white"/>
<path d="M818.502 277.879L764.466 333.096L765.807 334.466L819.842 279.249L818.502 277.879Z" fill="white"/>
</g>
<defs>
<clipPath id="clip0">
<rect width="1121" height="814" fill="white"/>
</clipPath>
</defs>
</svg>
